<svg id="Layer_1" data-name="Layer 1" xmlns="http://www.w3.org/2000/svg" viewBox="0 0 82.334 54.946"><path id="fullLogo" d="M69.581 31.408v17.663a.875.875 0 001.75 0V32.416z" fill="#202945"/><path id="fullLogo-2" data-name="fullLogo" d="M10.787 49.071a.875.875 0 001.75 0V31.532l-1.75 1.009z" fill="#202945"/><path id="fullLogo-3" data-name="fullLogo" d="M56.463 10.79h1.101v3.51l1.7.978a.854.854 0 00.05-.25V10.79h4.764v7.262l1.745 1.006c0-.01.005-.017.005-.027V10.79h1.324V9.04H56.463z" fill="#202945"/><path id="fullLogo-4" data-name="fullLogo" d="M76.896 25.438l-11.073-6.38-1.745-1.006-4.815-2.774-1.699-.979-15.96-9.195a.83.83 0 00-.1-.034.877.877 0 00-.172-.058 1.162 1.162 0 00-.329 0 .877.877 0 00-.172.058.83.83 0 00-.1.034L5.438 25.438a.875.875 0 00-.438.757v8.166a.875.875 0 001.312.758l4.475-2.578 1.75-1.009 28.63-16.496 28.414 16.372 1.75 1.008 4.691 2.703a.875.875 0 001.312-.758v-8.166a.875.875 0 00-.438-.758zm-1.312 7.41l-33.98-19.58a.794.794 0 00-.097-.032.847.847 0 00-.176-.06 1.16 1.16 0 00-.328 0 .847.847 0 00-.176.06.794.794 0 00-.097.033L6.75 32.848V26.7L41.167 6.87 75.584 26.7z" fill="#ee3124"/></svg>