<svg version="1.1" id="Layer_1" xmlns="http://www.w3.org/2000/svg" x="0" y="0" viewBox="0 0 38 57.2" xml:space="preserve"><path d="M8.4 1.8h3.9v14.6H8.4zm17.2 0h3.9v14.6h-3.9zM15 49.4c0 .8.7 1.5 1.5 1.5h1.6v-.1h1.8v.1h1.6c.8 0 1.5-.7 1.5-1.5v-3.9h-8v3.9zm9.8-31.3h-23v19.4c0 3.5 2.8 6.2 6.2 6.3h22c3.5 0 6.3-2.8 6.3-6.2V18.1H24.8zm-7.2 21.5l-1.5-.9 4.2-7.1h-5.6l5.8-9.7 1.5.9-4.2 7.1h5.6l-5.8 9.7z" fill="none"/><path d="M31.3 0h-7.4v16.4h-9.8V0H6.7v16.4H0v21.1c0 4.4 3.6 8 8 8h5.3v3.9c0 1.8 1.5 3.2 3.2 3.2h1.6v4.6h1.8v-4.6h1.6c1.8 0 3.2-1.5 3.2-3.2v-3.9H30c4.4 0 8-3.6 8-8V16.4h-6.7V0zm-1.7 1.8v14.6h-3.9V1.8h3.9zm-17.2 0v14.6h-4V1.8h4zM23 49.4c0 .8-.7 1.5-1.5 1.5h-1.6v-.1h-1.8v.1h-1.6c-.8 0-1.5-.7-1.5-1.5v-3.9h8v3.9zm13.3-31.3v19.4c0 3.5-2.8 6.2-6.2 6.3H8c-3.5 0-6.3-2.8-6.3-6.2V18.1h34.6z" fill="#212945"/><path fill="#ee3b29" d="M21.9 22.8l-1.5-.8-5.8 9.7h5.7l-4.2 7 1.5.9 5.8-9.7h-5.7z"/></svg>