<svg id="Layer_1" data-name="Layer 1" xmlns="http://www.w3.org/2000/svg" viewBox="0 0 98.31 61.28"><defs><style>.cls-1{fill:none}.cls-2{fill:#212945}.cls-3{fill:#ee3b29}</style></defs><path class="cls-1" d="M48.71 40.52v-15a.79.79 0 00-.76-.76H7a.8.8 0 00-.76.76v27.24a.76.76 0 00.23.53.8.8 0 00.53.23h41.67v-.2zm6.39 3.34h17.09a5.47 5.47 0 011.27.17v-3.51h-23v6.07a5.36 5.36 0 014.64-2.73zm22 3.28c.07.18.14.4.22.67s.17.61.27 1c.19.75.4 1.68.61 2.68a48.14 48.14 0 01.92 5.73 1.41 1.41 0 010 .29 3.64 3.64 0 01-.6 2H96.3a.26.26 0 00.26-.26V31.48a.25.25 0 00-.24-.26H75.46a.26.26 0 00-.26.26v13.33a5.41 5.41 0 011.9 2.33zm5.6 7.11h6.37V56H82.7zm-34.51 2.96a13.86 13.86 0 01.23-1.94H2.07a.26.26 0 00-.26.26V59a.27.27 0 00.26.27h46.54a3.66 3.66 0 01-.47-1.8.58.58 0 00.05-.26zm22-1.36a1.85 1.85 0 00.69-1.45 1.9 1.9 0 10-3.8 0A1.9 1.9 0 0069 56.3a1.87 1.87 0 001-.3z"/><path class="cls-1" d="M17.28 6a1.92 1.92 0 011.91-1.92h62.3A1.92 1.92 0 0183.41 6v23.5h2.27V2a.22.22 0 00-.22-.22H15.19A.22.22 0 0015 2v21h2.27z"/><path class="cls-1" d="M81.66 6a.18.18 0 00-.17-.17h-62.3A.18.18 0 0019 6v17h28.94a2.53 2.53 0 012.51 2.51v13.26h23v-7.29a2 2 0 012-2h6.2zM58.29 52.49a1.92 1.92 0 00-1.91 1.91 1.88 1.88 0 00.56 1.34 1.9 1.9 0 101.35-3.25z"/><path class="cls-1" d="M58.29 50.74a3.65 3.65 0 013.43 2.44h3.84a3.64 3.64 0 016.84 2.48 3.43 3.43 0 01-.41.81l1.85 2.36a1.9 1.9 0 001.49.69 2.16 2.16 0 001.43-.52 1.94 1.94 0 00.62-1.45v-.18a62.45 62.45 0 00-1.74-9 4.5 4.5 0 00-.16-.48 3.59 3.59 0 00-3.29-2.2H55.1a3.62 3.62 0 00-3.31 2.21s-.09.24-.16.48-.15.56-.24.92c-.19.73-.4 1.64-.6 2.62a46.33 46.33 0 00-.89 5.5v.17a1.94 1.94 0 00.62 1.41 2.25 2.25 0 001.44.56 1.91 1.91 0 001.48-.69l1.85-2.36a3.68 3.68 0 013-5.77z"/><path class="cls-2" d="M96.31 29.47h-8.88V2a2 2 0 00-2-2H15.19a2 2 0 00-2 2v21H7a2.53 2.53 0 00-2.51 2.51v27.24a2.82 2.82 0 00.13.76H2a2 2 0 00-2 2V59a2 2 0 002 2h48.56a3.79 3.79 0 01-1.3-.79 3.63 3.63 0 01-.72-.93H2.07a.27.27 0 01-.26-.28v-3.5a.26.26 0 01.26-.26h46.31c.08-.56.18-1.15.29-1.74H7a.8.8 0 01-.53-.23.76.76 0 01-.23-.53V25.53a.8.8 0 01.76-.76h41a.79.79 0 01.76.76v27.8c.4-2.16.91-4.37 1.24-5.52.09-.27.15-.49.23-.67a5.68 5.68 0 01.28-.55v-6.07h23V44a5.62 5.62 0 011.75.78v-13.3a.26.26 0 01.26-.26h20.8a.25.25 0 01.26.24v27.8a.26.26 0 01-.26.26H78.53a3.66 3.66 0 01-.58.72 3.9 3.9 0 01-2.36 1h20.72a2 2 0 002-2V31.48a2 2 0 00-2-2zM15 2a.22.22 0 01.22-.22h70.24a.22.22 0 01.22.22v27.47h-2.27V6a1.92 1.92 0 00-1.92-1.92h-62.3A1.92 1.92 0 0017.27 6v17H15zm58.45 29.48v7.29h-23V25.53A2.53 2.53 0 0047.94 23H19V6a.18.18 0 01.17-.17h62.32a.18.18 0 01.17.17v23.5h-6.2a2 2 0 00-2 2z"/><path class="cls-2" d="M82.7 54.25h6.37V56H82.7z"/><path class="cls-3" d="M70.19 55.85L70 56zm8.34 3.67a3.64 3.64 0 00.6-2 1.41 1.41 0 000-.29 48.14 48.14 0 00-.92-5.73c-.21-1-.42-1.93-.61-2.68l-.27-1c-.08-.27-.15-.49-.22-.67a5.41 5.41 0 00-1.9-2.33 5.62 5.62 0 00-1.75-.82 5.47 5.47 0 00-1.27-.17H55.1a5.36 5.36 0 00-4.64 2.73 5.68 5.68 0 00-.28.55c-.08.18-.14.4-.23.67-.33 1.15-.84 3.36-1.24 5.52v.2c-.11.59-.21 1.18-.29 1.74s-.19 1.38-.23 1.94v.3a3.66 3.66 0 00.47 1.8 3.63 3.63 0 00.72.93 3.79 3.79 0 001.3.79 3.72 3.72 0 001.32.24A3.67 3.67 0 0054.8 60l1.83-2.35a3.78 3.78 0 01-.9-.64 5.17 5.17 0 01-.42-.51l-1.85 2.36a1.91 1.91 0 01-1.48.69 2.25 2.25 0 01-1.44-.55 1.94 1.94 0 01-.62-1.45v-.17a46.33 46.33 0 01.89-5.5c.2-1 .41-1.89.6-2.62.09-.36.17-.67.24-.92a4.9 4.9 0 01.16-.48 3.62 3.62 0 013.31-2.21h17.07a3.61 3.61 0 013.3 2.21 4.5 4.5 0 01.16.48 62.45 62.45 0 011.74 9v.18a1.94 1.94 0 01-.62 1.48 2.16 2.16 0 01-1.43.56 1.9 1.9 0 01-1.49-.69L72 56.46a3.48 3.48 0 01-1.32 1.15L72.51 60a3.7 3.7 0 002.81 1.29h.26a3.9 3.9 0 002.36-1 3.15 3.15 0 00.59-.77z"/><path class="cls-3" d="M65.56 53.18h-3.84a3.87 3.87 0 01.22 1.22 4.75 4.75 0 010 .53h3.5a2.35 2.35 0 010-.53 3.37 3.37 0 01.12-1.22zm1.53 1.22z"/><path class="cls-2" d="M72 56.47a3.65 3.65 0 10-6.43-3.29 3.61 3.61 0 00-.22 1.22 2.35 2.35 0 000 .53 3.64 3.64 0 003.6 3.12 3.77 3.77 0 003-1.58zm-4.9-2.07a1.9 1.9 0 013.8 0 1.85 1.85 0 01-.69 1.45L70 56a1.87 1.87 0 01-1 .31 1.9 1.9 0 01-1.94-1.86zm-5.38-1.22a3.65 3.65 0 10-6.44 3.29 5.17 5.17 0 00.42.51 3.85 3.85 0 002.59 1.07 3.65 3.65 0 003.6-3.12 4.75 4.75 0 000-.53 3.87 3.87 0 00-.17-1.22zm-3.43 3.12a1.9 1.9 0 01-1.35-.56 1.88 1.88 0 01-.56-1.34 1.91 1.91 0 111.92 1.9z"/></svg>