<svg id="Layer_1" data-name="Layer 1" xmlns="http://www.w3.org/2000/svg" viewBox="0 0 82.458 75.986"><path id="fullLogo" d="M39.834 31.937H20.39a2.443 2.443 0 00-2.44 2.44v34.859h1.75v-34.86a.691.691 0 01.69-.69h19.445a.691.691 0 01.69.69v34.86h1.75v-34.86a2.45 2.45 0 00-2.44-2.44z" fill="#ee3124"/><path id="fullLogo-2" data-name="fullLogo" fill="#ee3124" d="M36.425 49.714h1.75v4.219h-1.75z"/><path id="fullLogo-3" data-name="fullLogo" d="M61.945 32.241h-13.19a2.443 2.443 0 00-2.44 2.44v12.291a2.45 2.45 0 002.44 2.44h13.19a2.443 2.443 0 002.44-2.44v-12.29a2.45 2.45 0 00-2.44-2.44zm.69 12.967v1.764a.691.691 0 01-.69.69h-13.19a.691.691 0 01-.69-.69v-12.29a.691.691 0 01.69-.69h13.19a.691.691 0 01.69.69v10.526z" fill="#202945"/><path id="fullLogo-4" data-name="fullLogo" d="M76.895 25.438L41.605 5.104a.811.811 0 00-.098-.033.853.853 0 00-.176-.06 1.16 1.16 0 00-.327 0 .853.853 0 00-.177.06.811.811 0 00-.097.033L5.438 25.438a.875.875 0 00.438 1.633.864.864 0 00.436-.117l4.51-2.598v44.88H8.46a.875.875 0 100 1.75h65.413a.875.875 0 000-1.75h-2.361v-44.88l4.51 2.598a.86.86 0 00.435.117.875.875 0 00.438-1.633zm-7.132 43.798H12.572V23.347L41.167 6.871l28.596 16.476z" fill="#202945"/></svg>