<svg version="1.1" id="Layer_1" xmlns="http://www.w3.org/2000/svg" x="0" y="0" viewBox="0 0 59.4 61.3" xml:space="preserve"><style>.st1{fill:#212945}</style><path d="M20.5 35.9h28.6c-.1-2-.6-4-1.6-5.8H22.1c-.9 1.8-1.5 3.8-1.6 5.8zm2.7 9.2c.4.6.9 1.2 1.5 1.7 5.6 5.6 14.7 5.6 20.3 0 .5-.5 1-1.1 1.5-1.7H23.2zm23.3-16.7c-.5-.6-1-1.3-1.5-1.8-5.6-5.6-14.7-5.6-20.3 0-.6.6-1.1 1.2-1.5 1.8h23.3zm1 15c.9-1.8 1.5-3.7 1.6-5.8H20.5c.1 2 .7 4 1.6 5.8h25.4z" fill="none"/><path class="st1" d="M21.1 45.1c4.7 7.6 14.6 9.9 22.1 5.3 7.6-4.7 9.9-14.6 5.3-22.1s-14.6-10-22.1-5.3c-4.8 2.9-7.7 8.1-7.7 13.7 0 3 .9 5.9 2.4 8.4zM45 46.8c-5.6 5.6-14.7 5.6-20.3 0-.5-.5-1-1.1-1.5-1.7h23.2c-.4.6-.9 1.2-1.4 1.7zm4.1-11H20.5c.1-2 .6-4 1.6-5.8h25.4c1 1.9 1.5 3.8 1.6 5.8zm0 1.8c-.1 2-.7 4-1.6 5.8H22.1c-.9-1.8-1.5-3.7-1.6-5.8h28.6zM24.7 26.5c5.6-5.6 14.7-5.6 20.3 0 .6.6 1.1 1.2 1.5 1.8H23.1c.5-.6 1-1.2 1.6-1.8z"/><path class="st1" d="M55.4 12.1H21.9v1.8h33.5c1.2 0 2.3 1 2.3 2.3v41.2c0 1.2-1 2.3-2.3 2.3H14.2c-1.2 0-2.3-1-2.3-2.3L11.8 29H10v.9l.1 27.5c0 2.2 1.8 4 4 4h41.2c2.2 0 4-1.8 4-4V16.1c.1-2.2-1.7-4-3.9-4z"/><path fill="#43bee5" d="M10.1 25.3h1.8v-11l9.1 6.1 1-1.4-9.4-6.4L22 6.3l-1-1.4-9.1 6.1V0h-1.8v11L1 4.9 0 6.3l9.4 6.3L0 19l1 1.4 9.1-6.1z"/></svg>