<svg version="1.1" id="Layer_1" xmlns="http://www.w3.org/2000/svg" x="0" y="0" viewBox="0 0 59.8 43.5" xml:space="preserve"><style>.st1{fill:#212945}.st2{fill:#ee3b29}</style><path d="M3.7 35l-1.1 1.4L4 41.7h1.9l1.4-5.4L6.2 35c-.2-.1-.2-.3-.2-.5V22.9H3.8v11.6c0 .2 0 .4-.1.5zM1.8 20.7c0 .3.2.5.5.5h5.4c.3 0 .5-.2.5-.5 0-.6-.2-1.3-.6-1.8-1.2-1.7-1.2-3.9 0-5.6.4-.5.6-1.1.6-1.8V5.4c0-1.7-1.4-3.2-3.2-3.2S1.7 3.6 1.7 5.4v6.2c0 .6.2 1.2.6 1.8.6.8.9 1.8.9 2.8 0 1-.3 2-.9 2.8-.4.4-.6 1-.5 1.7zm17.5 16.1c0 1.4.5 2.8 1.5 3.8v-3c0-.3.2-.6.4-.8l3.3-1.9c.3-.2.6-.2.9 0l3.3 1.9c.3.2.4.4.4.8v3c1-1 1.5-2.4 1.5-3.8 0-2.1-1.1-4-3-5-.3-.2-.5-.5-.5-.8V4.6c0-1.2-1-2.2-2.2-2.2-1.2 0-2.2 1-2.2 2.2V31c0 .3-.2.6-.5.8-1.7 1-2.9 2.9-2.9 5zM45.8 6c0-.5.4-.9.9-.9h10c-.2-.6-.5-1.2-1-1.6-.8-.7-1.7-1.1-2.7-1.1h-8.2c-.6 0-1.1.2-1.5.6-.4.4-.6.9-.6 1.4V12h3l.1-6zM42 17.7h2.4c2.6 0 4.7 2.1 4.7 4.7v17.1c0 1.2 1 2.2 2.2 2.2 1.2 0 2.2-1 2.2-2.2l.2-18c0-2.9 1.5-5.6 3.8-7.3l.5-.2.1-.1-.1-.2-.1-.1h-17v3.1c0 .3.1.5.3.7.2.2.5.3.8.3z" fill="none"/><path class="st1" d="M21.2 43.2c.4.2 1 .1 1.2-.3.1-.1.1-.3.1-.4v-4.3l2.4-1.4 2.4 1.4v4.4c0 .3.2.6.4.8.3.2.6.2.9 0 2.3-1.3 3.7-3.8 3.7-6.4 0-2.5-1.3-4.9-3.4-6.2v-26c.3-2.2-1.1-4.2-3.3-4.6-2.2-.3-4.2 1.1-4.6 3.3-.1.4-.1.8 0 1.3v26c-2.1 1.3-3.4 3.6-3.5 6.1v.1c.1 2.5 1.5 4.9 3.7 6.2zm1.1-11.4c.3-.2.5-.5.5-.8V4.6c0-1.2 1-2.2 2.2-2.2 1.2 0 2.2 1 2.2 2.2v26.5c0 .3.2.6.5.8 1.9 1 3 2.9 3 5 0 1.4-.6 2.8-1.5 3.8v-3c0-.3-.2-.6-.4-.8L25.4 35c-.3-.2-.6-.2-.9 0l-3.3 1.9c-.3.2-.4.4-.4.8v3c-1-1-1.5-2.4-1.5-3.8 0-2.2 1.2-4.1 3-5.1z"/><path class="st2" d="M42 19.4h2.4c1.7 0 3 1.3 3 3v17.1c.3 2.2 2.4 3.7 4.6 3.3 1.7-.3 3-1.6 3.3-3.3l.2-18c0-2.3 1.2-4.5 3.1-5.9l.4-.3c.5-.4.8-.9.8-1.6 0-1.1-.8-2-1.9-2H47.5V6.8h10.1c.5 0 .9-.4.9-.8 0-1.4-.6-2.8-1.6-3.8S54.5.6 53 .6h-8.2c-1 0-2 .4-2.7 1.1-.7.6-1.1 1.6-1.1 2.6v7.6h-1c-.5 0-.9.4-.9.9v3.9c0 .7.3 1.4.8 1.9.6.5 1.3.8 2.1.8zm.8-15.1c0-.5.2-1 .6-1.4.4-.4.9-.6 1.5-.6H53c1 0 1.9.4 2.6 1.1.5.4.8 1 1 1.6h-10c-.5 0-.9.4-.9.9v6h-3l.1-7.6zm-1.9 9.4h17l.1.1.1.2H58l-.4.3c-2.4 1.7-3.8 4.4-3.8 7.3l-.2 18c0 1.2-1 2.2-2.2 2.2-1.2 0-2.2-1-2.2-2.2V22.4c0-2.6-2.1-4.7-4.7-4.7H42c-.3 0-.6-.1-.8-.3-.1-.2-.2-.4-.2-.7l-.1-3z"/><path class="st1" d="M6 22.9v11.6c0 .2 0 .4.2.5l1.1 1.4-1.4 5.4H4l-1.4-5.4L3.7 35c.1-.2.2-.4.2-.6V22.9H2.1v11.3L.9 35.6c-.2.2-.2.5-.2.8l1.7 6.4c.1.4.4.7.8.6h3.2c.4 0 .7-.3.9-.6L9 36.4c.1-.3 0-.6-.2-.8l-1.2-1.5V22.9H6z"/><path class="st2" d="M0 20.7c0 1.2.9 2.1 2.1 2.2h5.6c1.2-.1 2.1-1 2.1-2.2 0-1-.3-2-.9-2.8-.4-.5-.6-1.1-.6-1.8 0-.6.2-1.3.6-1.8.6-.8.9-1.8.9-2.8V5.4C9.8 2.7 7.6.5 4.9.5S0 2.7 0 5.4v6.2c0 1 .3 2 .9 2.8.8 1.1.8 2.5 0 3.5-.6.8-.9 1.8-.9 2.8zm2.3-7.4c-.4-.5-.6-1.1-.6-1.8V5.4c0-1.7 1.4-3.2 3.2-3.2s3.2 1.4 3.2 3.2v6.2c0 .6-.2 1.2-.6 1.8-1.2 1.7-1.2 3.9 0 5.6.4.5.6 1.1.6 1.8 0 .3-.2.5-.5.5H2.3c-.3 0-.5-.2-.5-.5 0-.6.2-1.3.6-1.8.6-.8.9-1.8.9-2.8-.1-1.1-.4-2.1-1-2.9z"/></svg>