<svg version="1.1" id="Layer_1" xmlns="http://www.w3.org/2000/svg" x="0" y="0" viewBox="0 0 86.4 47.2" xml:space="preserve"><style>.st0{fill:none}.st1{fill:#212945}</style><path class="st0" d="M71.5 15.4l-.2-.2-10-12.4c-.5-.7-1.3-1.1-2.2-1.1H4.5C3 1.7 1.7 3 1.8 4.5V36c0 1.3 1 2.3 2.3 2.3h4.8C9.4 32 15 27.5 21.2 28.2c5.3.6 9.5 4.8 10.1 10.1h24.8c.6-6.2 6.2-10.8 12.4-10.1 5.2.5 9.4 4.6 10.1 9.8 0 .1.1.3.3.3l3 .1c1.5 0 2.8-1.3 2.8-2.8V26c0-.7-.3-1.4-.8-1.9l-12.4-8.7zm-11.7 2c0 .4-.3.7-.6.8l-7.8 2.1c-.3.1-.6 0-.8-.2l-1.8-1.5h-14c0 1.4-1.1 2.5-2.5 2.5-1.2 0-2.3-.4-3.3-1.1-1.4-1-3.2-1-4.5 0-1 .7-2.1 1-3.3 1h-7.5c-3.2 0-5.8-2.6-5.8-5.8 0-3.2 2.6-5.8 5.8-5.8h7.5c1.2 0 2.3.3 3.3 1 .7.5 1.5.7 2.3.7.8 0 1.6-.3 2.3-.7 1-.7 2.1-1 3.3-1.1 1.4 0 2.5 1.1 2.5 2.5h14l1.8-1.5c.2-.2.5-.2.8-.2l7.8 2.1c.4.1.7.5.6.9l-.1 4.3z"/><path class="st0" d="M49 16.9c.2 0 .4.1.6.2l1.7 1.4 6.7-1.8v-2.5l-6.7-1.8-1.7 1.4c-.2.1-.4.2-.6.2H34.7v3l14.3-.1zm24.4 22.3c0-3.3-2.7-6.1-6.1-6.1-3.3 0-6.1 2.7-6.1 6.1v.2c.1 3.3 3 6 6.3 5.8 3.2-.1 5.7-2.7 5.8-5.8l.1-.2zM32.2 11.4c-.8 0-1.6.3-2.3.7-2 1.4-4.6 1.4-6.6 0-.7-.5-1.5-.7-2.3-.7h-7.5c-2.2 0-4 1.8-4 4s1.8 4 4 4H21c.8 0 1.6-.3 2.3-.7 2-1.4 4.6-1.4 6.6 0 .7.5 1.5.7 2.3.7.4 0 .8-.3.8-.8v-6.5c0-.4-.4-.7-.8-.7zm-6.1 27.8c0-3.3-2.7-6.1-6.1-6.1-3.3 0-6.1 2.7-6.1 6.1v.2c0 3.3 2.7 6.1 6.1 6.1 3.3 0 6.1-2.7 6.1-6.1v-.2z"/><path class="st1" d="M84.9 22.6L72.6 14 62.7 1.8C61.9.6 60.5 0 59.1 0H4.5C2 0 0 2 0 4.6V36c0 2.2 1.8 4 4 4h4.8c.9 0 1.6-.7 1.7-1.6a9.563 9.563 0 0119 0c.1.9.8 1.6 1.7 1.6H56c.9 0 1.6-.7 1.7-1.6.5-5.3 5.3-9.1 10.5-8.5 4.4.5 7.9 3.9 8.5 8.2.1 1 1 1.8 2 1.8 1.1 0 3.1.1 3.1.1 2.5 0 4.5-2 4.5-4.6v-9.6c.1-1.2-.4-2.3-1.4-3.2zm-.2 12.9c0 1.5-1.2 2.8-2.8 2.8l-3-.1c-.1 0-.3-.1-.3-.3-.8-6.2-6.5-10.6-12.7-9.8-5.2.7-9.3 4.9-9.8 10.1H31.3c-.6-6.2-6.2-10.7-12.4-10.1-5.3.6-9.6 4.9-10.1 10.2H4c-1.3 0-2.3-1-2.3-2.3V4.5C1.7 3 3 1.7 4.5 1.7h54.6c.9 0 1.7.4 2.2 1.1l10 12.4.2.2L83.9 24c.5.5.8 1.2.8 1.9v9.6z"/><path class="st1" d="M75.1 39.1c-.2-4.3-3.8-7.7-8.1-7.5-4.1.1-7.4 3.4-7.5 7.5v.3c.2 4.3 3.8 7.7 8.1 7.5 4.1-.1 7.4-3.4 7.5-7.5v-.3zm-3.5 4.5c-2.4 2.4-6.2 2.4-8.6 0-1.1-1.1-1.8-2.7-1.8-4.3v-.2c0-3.3 2.7-6.1 6.1-6.1 3.3 0 6.1 2.7 6.1 6.1v.2c0 1.7-.7 3.2-1.8 4.3zm-43.8-4.2v-.3c-.2-4.3-3.8-7.7-8.1-7.5-4.1.1-7.4 3.4-7.5 7.5v.2c0 4.3 3.5 7.8 7.8 7.8 4.4.1 7.9-3.4 7.8-7.7zm-7.8 6c-3.3 0-6-2.7-6.1-6.1v-.2c0-3.3 2.7-6.1 6.1-6.1 3.3 0 6.1 2.7 6.1 6.1v.2c0 3.4-2.7 6.1-6.1 6.1zm39.1-32.8l-7.8-2.1c-.3-.1-.6 0-.8.2l-1.8 1.5h-14V14H49c.2 0 .4-.1.6-.2l1.7-1.4 6.7 1.8v2.5l-6.7 1.8-1.7-1.4c-.2-.1-.4-.2-.6-.2H34.7v1.8h14l1.8 1.5c.2.2.5.2.8.2l7.8-2.1c.4-.1.6-.4.6-.8v-3.9c.1-.5-.2-.9-.6-1z"/><path d="M34.7 13.9v-1.8c0-1.4-1.1-2.5-2.5-2.5-1.2 0-2.3.4-3.3 1.1-.7.5-1.4.7-2.3.7-.8 0-1.6-.3-2.3-.7-1-.7-2.1-1-3.3-1h-7.5c-3.2 0-5.8 2.6-5.8 5.8 0 3.2 2.6 5.8 5.8 5.8H21c1.2 0 2.3-.3 3.3-1 1.4-1 3.2-1 4.5 0 1 .7 2.1 1.1 3.3 1.1 1.4 0 2.5-1.1 2.5-2.5V14l.1-.1zM33 18.7c0 .4-.3.8-.8.8-.8 0-1.6-.3-2.3-.7-2-1.4-4.6-1.4-6.6 0-.7.5-1.5.7-2.3.7h-7.5c-2.2 0-4-1.8-4-4s1.8-4 4-4H21c.8 0 1.6.3 2.3.7 2 1.4 4.6 1.4 6.6 0 .7-.5 1.4-.7 2.3-.7.4 0 .8.3.8.8v6.4z" fill="#ee3b29"/></svg>