<svg version="1.1" id="Layer_1" xmlns="http://www.w3.org/2000/svg" x="0" y="0" viewBox="0 0 71.2 59.2" xml:space="preserve"><style>.st0{fill:none}.st1{fill:#212945}</style><path class="st0" d="M49.8 29H23.2c-.6 0-1.2.5-1.2 1.2v.3c0 .6.5 1.2 1.2 1.2h26.6c.6 0 1.2-.5 1.2-1.2v-.3c0-.7-.5-1.2-1.2-1.2zm8.5-14.3H23.1c-.6 0-1.1.5-1.1 1.1v.3c0 .6.5 1.1 1.1 1.1h35.1c.6 0 1.1-.5 1.1-1.1v-.3c.1-.6-.4-1.1-1-1.1z"/><path class="st0" d="M69.5 41.3V3.8c0-1.1-.9-2.1-2.1-2.1h-55c-1.1 0-2.1.9-2.1 2.1v28.8c4.9.4 8.7 4.5 8.7 9.4v1.3h48.3c1.2.1 2.1-.8 2.2-2zM20.2 8.1H30v1.8h-9.8V8.1zm0 14.3H30v1.8h-9.8v-1.8zm32.5 8c0 1.6-1.3 2.9-2.9 2.9H23.2c-1.6 0-2.9-1.3-2.9-2.9v-.3c0-1.6 1.3-2.9 2.9-2.9h26.6c1.6 0 2.9 1.3 2.9 2.9v.3zM61.1 16c0 1.6-1.3 2.9-2.9 2.9H23.1c-1.6 0-2.9-1.3-2.9-2.9v-.3c0-1.6 1.3-2.9 2.9-2.9h35.1c1.6 0 2.9 1.3 2.9 2.9v.3zM8.7 43.3v-8.9c-4 .4-7 3.7-7 7.7v1.2h7zm.7 14.2h.2c4.3 0 7.7-3.5 7.7-7.7v-4.7H1.7v4.7c0 4.2 3.5 7.7 7.7 7.7z"/><path class="st0" d="M17.4 43.3v-1.2c0-4-3-7.3-7-7.7v8.9h7zm14.2 11h18.7l-1.7-9.2H33.3z"/><path class="st1" d="M8.7 32.6h1.7V3.9c0-1.1.9-2.1 2.1-2.1h55c1.1 0 2.1.9 2.1 2.1v37.5c0 1.1-.9 2.1-2.1 2.1H19.2v1.8h12.3l-1.6 9.1h-3.7c-.5.1-.8.5-.8 1 0 .4.4.7.8.8h28.2c.5.1.9-.3 1-.8.1-.5-.3-.9-.8-1h-2.5l-1.6-9.1h17c2.1 0 3.8-1.7 3.8-3.8V3.8c0-2.1-1.7-3.8-3.8-3.8h-55c-2.1 0-3.8 1.7-3.8 3.8v28.8zm41.6 21.7H31.6l1.6-9.1h15.4l1.7 9.1z"/><path class="st1" d="M58.3 12.9H23.1c-1.6 0-2.9 1.3-2.9 2.9v.3c0 1.6 1.3 2.9 2.9 2.9h35.1c1.6 0 2.9-1.3 2.9-2.9v-.3c0-1.6-1.3-2.9-2.8-2.9zm1.1 3.2c0 .6-.5 1.1-1.1 1.1H23.1c-.6 0-1.1-.5-1.1-1.1v-.3c0-.6.5-1.1 1.1-1.1h35.1c.6 0 1.1.5 1.1 1.1v.3zm-39.2-8H30v1.8h-9.8zm29.6 19.1H23.2c-1.6 0-2.9 1.3-2.9 2.9v.3c0 1.6 1.3 2.9 2.9 2.9h26.6c1.6 0 2.9-1.3 2.9-2.9v-.3c0-1.5-1.3-2.9-2.9-2.9zm1.2 3.2c0 .6-.5 1.2-1.1 1.2H23.2c-.6 0-1.2-.5-1.2-1.2v-.3c0-.6.5-1.2 1.2-1.2h26.6c.6 0 1.2.5 1.2 1.2v.3zm-30.8-8H30v1.8h-9.8z"/><path d="M9.4 59.2h.2c5.2 0 9.5-4.2 9.5-9.5V42c0-4.9-3.8-9-8.7-9.4H8.7C3.8 33 0 37.1 0 42.1v7.7c0 5.2 4.2 9.4 9.4 9.4zm5.7-22.6c1.5 1.4 2.3 3.4 2.3 5.5v1.2h-7v-8.9c1.8.2 3.5.9 4.7 2.2zM4 36.6c1.3-1.3 2.9-2.1 4.7-2.2v8.9h-7v-1.2c0-2.1.8-4 2.3-5.5zm-2.3 8.5h15.7v4.7c0 4.3-3.5 7.7-7.7 7.7h-.3c-4.3 0-7.7-3.5-7.7-7.7v-4.7z" fill="#ee3b29"/></svg>