<svg version="1.1" id="Layer_1" xmlns="http://www.w3.org/2000/svg" x="0" y="0" viewBox="0 0 48.8 70.1" xml:space="preserve"><style>.st0{fill:none}.st1{fill:#ee3b29}.st2{fill:#212945}</style><path class="st0" d="M40.1 15.1c1 0 1.7-.8 1.7-1.7s-.8-1.7-1.7-1.7c-1 0-1.7.8-1.7 1.7-.1.9.7 1.7 1.7 1.7-.1 0 0 0 0 0z"/><path class="st0" d="M1.8 8.1v12.2H47V8.1c0-1-.8-1.7-1.7-1.7H3.5c-1 0-1.7.8-1.7 1.7zm38.3 1.8c1.9 0 3.5 1.6 3.5 3.5s-1.6 3.5-3.5 3.5-3.5-1.6-3.5-3.5c0-2 1.5-3.5 3.5-3.5zm-15.7 0c1.9 0 3.5 1.6 3.5 3.5s-1.6 3.5-3.5 3.5-3.5-1.6-3.5-3.5c0-2 1.6-3.5 3.5-3.5zm-15.7 0c1.9 0 3.5 1.6 3.5 3.5s-1.6 3.5-3.5 3.5-3.5-1.6-3.5-3.5c0-2 1.6-3.5 3.5-3.5z"/><path class="st0" d="M8.7 15.1c1 0 1.7-.8 1.7-1.7 0-1-.8-1.7-1.7-1.7-1 0-1.7.8-1.7 1.7 0 .9.8 1.7 1.7 1.7zM47 58.4V22.1H1.8v44.6c0 1 .8 1.7 1.7 1.7h41.9c1 0 1.7-.8 1.7-1.7l-.1-8.3zm-3.4-2.7c0 1.3-1.1 2.4-2.4 2.4H7.7c-1.3 0-2.4-1.1-2.4-2.4V29.6c0-1.3 1.1-2.4 2.4-2.4h33.4c1.3 0 2.4 1.1 2.4 2.4v26.1z"/><path class="st0" d="M41.2 28.8H7.7c-.4 0-.7.3-.7.7v26.1c0 .4.3.7.7.7h33.4c.4 0 .7-.3.7-.7v-26c.1-.4-.2-.7-.6-.8zm-7.6 5.9H15.3V33h18.3v1.7zm-9.2-19.6c1 0 1.7-.8 1.7-1.7s-.8-1.7-1.7-1.7c-1 0-1.7.8-1.7 1.7s.8 1.7 1.7 1.7z"/><path class="st1" d="M7.1 0h13.7v1.8H7.1zM28 0h13.7v1.8H28z"/><path class="st2" d="M40.1 16.8c1.9 0 3.5-1.6 3.5-3.5S42 9.9 40.1 9.9s-3.5 1.6-3.5 3.5 1.5 3.4 3.5 3.4c-.1 0 0 0 0 0zm0-5.2c1 0 1.7.8 1.7 1.7 0 1-.8 1.7-1.7 1.7-1 0-1.7-.8-1.7-1.7-.1-.9.7-1.7 1.7-1.7-.1 0-.1 0 0 0zM8.7 16.8c1.9 0 3.5-1.6 3.5-3.5s-1.6-3.5-3.5-3.5-3.5 1.6-3.5 3.5c0 2 1.6 3.5 3.5 3.5zm0-5.2c1 0 1.7.8 1.7 1.7 0 1-.8 1.7-1.7 1.7-1 0-1.7-.8-1.7-1.7 0-.9.8-1.7 1.7-1.7z"/><path class="st1" d="M41.2 27.1H7.7c-1.3 0-2.4 1.1-2.4 2.4v26.1c0 1.3 1.1 2.4 2.4 2.4h33.4c1.3 0 2.4-1.1 2.4-2.4v-26c.1-1.4-.9-2.5-2.3-2.5zm.7 28.5c0 .4-.3.7-.7.7H7.7c-.4 0-.7-.3-.7-.7v-26c0-.4.3-.7.7-.7h33.4c.4 0 .7.3.7.7v26z"/><path class="st2" d="M0 8.1v58.5c0 1.9 1.6 3.5 3.5 3.5h41.9c1.9 0 3.5-1.5 3.5-3.5V52.7h-.1V8.1c0-1.9-1.6-3.5-3.5-3.5H3.5C1.6 4.6 0 6.2 0 8.1zm45.3 60.3H3.5c-1 0-1.7-.8-1.7-1.7V22.1H47v36.3h.1v8.3c0 .9-.8 1.7-1.8 1.7zM47 8.1v12.2H1.8V8.1c0-1 .8-1.7 1.7-1.7h41.8c.9 0 1.7.8 1.7 1.7z"/><path class="st2" d="M24.4 16.8c1.9 0 3.5-1.6 3.5-3.5s-1.6-3.5-3.5-3.5-3.5 1.6-3.5 3.5 1.6 3.5 3.5 3.5zm0-5.2c1 0 1.7.8 1.7 1.7 0 1-.8 1.7-1.7 1.7-1 0-1.7-.8-1.7-1.7 0-.9.8-1.7 1.7-1.7zM15.3 33h18.3v1.8H15.3z"/></svg>