<svg version="1.1" id="Layer_1" xmlns="http://www.w3.org/2000/svg" x="0" y="0" viewBox="0 0 46.3 66" xml:space="preserve"><style>.st0{fill:none}.st1{fill:#43bee5}.st2{fill:#212945}</style><path class="st0" d="M1.8 62.1c0 1.2 1 2.1 2.1 2.1h38.5c1.2 0 2.1-1 2.1-2.1v-8.5H1.8v8.5zM44.6 3.9c0-1.2-1-2.1-2.1-2.1H3.9c-1.2 0-2.1 1-2.1 2.1v8.3h42.8V3.9zM37 7.5h-4.9V5.7H37v1.8zM22.7 46c7.2 0 13.1-5.8 13.1-13.1 0-7.2-5.8-13.1-13.1-13.1-7.2 0-13.1 5.8-13.1 13.1 0 3.5 1.4 6.8 3.8 9.2 2.5 2.5 5.8 3.9 9.3 3.9zm-9.9-14.5h1.8c0 1.2.9 2.1 2.1 2.1s2.1-.9 2.1-2.1h1.8v.1c0 1.2.9 2.1 2.1 2.1 1.2 0 2.1-.9 2.1-2.1h1.8c0 1.2.9 2.1 2.1 2.1 1.2 0 2.1-.9 2.1-2.1h1.8c0 2.1-1.7 3.9-3.9 3.9-1.2 0-2.3-.5-3-1.4-.7.9-1.8 1.4-3 1.4s-2.3-.6-3-1.5c-1.4 1.6-3.8 1.9-5.4.5-1-.8-1.5-1.9-1.5-3z"/><path class="st0" d="M44.6 51.9v-38H1.8v38h42.8zM22.7 18.1c8.2 0 14.8 6.6 14.8 14.8s-6.6 14.8-14.8 14.8S7.9 41.1 7.9 32.9c0-8.2 6.6-14.8 14.8-14.8z"/><path class="st1" d="M22.7 47.7c8.2 0 14.8-6.6 14.8-14.8s-6.6-14.8-14.8-14.8S7.9 24.7 7.9 32.9c0 8.2 6.6 14.8 14.8 14.8zm-9.2-24c5.1-5.1 13.4-5.1 18.5 0s5.1 13.4 0 18.5-13.4 5.1-18.5 0C11 39.8 9.7 36.4 9.7 33c-.1-3.6 1.3-6.9 3.8-9.3z"/><path class="st2" d="M3.9 66h38.5c2.1 0 3.9-1.7 3.9-3.9V3.9c0-2.1-1.7-3.9-3.9-3.9H3.9C1.7 0 0 1.7 0 3.9v58.3C0 64.3 1.7 66 3.9 66zm40.7-3.9c0 1.2-1 2.1-2.1 2.1H3.9c-1.2 0-2.1-1-2.1-2.1v-8.5h42.8v8.5zM1.8 3.9c0-1.2 1-2.1 2.1-2.1h38.5c1.2 0 2.1 1 2.1 2.1v8.3H1.8V3.9zm0 10h42.8v38H1.8v-38z"/><path class="st2" d="M32.1 5.7H37v1.8h-4.9z"/><path class="st1" d="M16.7 35.3c1.1 0 2.2-.5 2.9-1.4.7.9 1.8 1.5 3 1.5s2.3-.5 3-1.4c.7.9 1.8 1.4 3 1.4 2.1 0 3.9-1.7 3.9-3.9h-1.8c0 1.2-.9 2.1-2.1 2.1-1.2 0-2.1-.9-2.1-2.1h-1.8c0 1.2-.9 2.1-2.1 2.1-1.2 0-2.1-.9-2.1-2.1v-.1h-1.8c0 1.2-.9 2.1-2.1 2.1s-2.1-.9-2.1-2.1h-1.8c.1 2.1 1.9 3.9 4 3.9z"/></svg>