<svg width="171" height="182" fill="none" xmlns="http://www.w3.org/2000/svg"><path fill-rule="evenodd" clip-rule="evenodd" d="M118.823 35.316L59.5 0 .177 35.316H0V124h119V35.316h-.177zm-9.972 4.59L59 10 9.149 39.905H9V115h100V39.905h-.149z" fill="#EE3B29"/><path fill-rule="evenodd" clip-rule="evenodd" d="M171 72H67v73.869h.1C68.778 166.032 91.373 182 119 182s50.222-15.968 51.9-36.131h.1V72zm-9 10H77v60.438h.082C78.453 158.935 96.92 172 119.5 172s41.047-13.065 42.418-29.562H162V82z" fill="#267BDB"/><path fill="#EE3B29" d="M109 52h10v33h-10z"/></svg>