<svg xmlns="http://www.w3.org/2000/svg" width="384" height="441"><path fill="#FFF" d="M.416 135.032L135.111.346l134.708 134.686v173.721H170.14v-46.857h52.776v-61.062h-61.494v44.319h-.045v61.421l.05 2.252c1.01 46.695 38.416 84.278 84.837 85.755l1.409.034 1.429.011c47.97 0 86.945-38.493 87.72-86.278l.011-1.45.017-106.064h-58.268v-46.859h105.002v152.923c0 74.273-60.207 134.483-134.482 134.483-72.034 0-130.836-56.63-134.316-127.805l-.089-2.161-.046-1.855h-.089l-.001-.807H.416V135.032zM135.111 7.654L5.584 137.172v166.413H119.73l-.001.807h.06l.002 2.583c.041 71.388 57.918 129.238 129.311 129.238 70.706 0 128.155-56.744 129.297-127.177l.017-2.138V159.143H283.75v36.523h58.268l-.017 111.232c0 51.307-41.591 92.896-92.899 92.896-49.032 0-89.287-38.033-92.639-86.373l-.09-1.468-.023-.487h-.141v-71.481h.045v-44.319h71.83v71.398h-52.776v36.521h89.343V137.173L135.111 7.654zM42.109 154.852l93-93.152 92.975 92.984v4.459H119.729l.001 107.921H42.109V154.852zm93.002-85.84l-87.834 87.977v104.907h67.284l.001-107.921h105.504l-84.955-84.963z"/></svg>