<svg width="149" height="39" fill="none" xmlns="http://www.w3.org/2000/svg"><path fill-rule="evenodd" clip-rule="evenodd" d="M23.077 7.701L11.556 0 .034 7.701H0V27.04h23.111V7.701h-.034zm-3.09.398L10.834 2.03 1.68 8.1h-.028v15.235h18.361V8.1h-.027z" fill="#EE3B29"/><path d="M29.738 27.224c-.625 0-1.185-.15-1.68-.448a3.12 3.12 0 01-1.162-1.246 3.902 3.902 0 01-.42-1.82c0-.672.135-1.27.406-1.792.28-.532.663-.947 1.148-1.246a3.186 3.186 0 011.68-.448c.625 0 1.185.15 1.68.448a3.12 3.12 0 011.162 1.246c.28.532.42 1.134.42 1.806 0 .672-.14 1.274-.42 1.806a3.02 3.02 0 01-1.148 1.246c-.485.299-1.04.448-1.666.448zm-.028-.868c.448 0 .845-.112 1.19-.336.355-.224.63-.537.826-.938.196-.401.294-.854.294-1.358 0-.504-.098-.957-.294-1.358a2.247 2.247 0 00-.826-.938 2.138 2.138 0 00-1.19-.336c-.439 0-.83.112-1.176.336a2.283 2.283 0 00-.812.938c-.196.392-.294.84-.294 1.344 0 .513.098.97.294 1.372.196.401.467.714.812.938.345.224.737.336 1.176.336zm11.581-6.132c.607 0 1.111.215 1.513.644.4.42.602 1.003.602 1.75V27h-.953v-3.962c0-.69-.13-1.185-.392-1.484a1.277 1.277 0 00-1.022-.462c-.513 0-.914.2-1.203.602-.28.392-.444.929-.49 1.61V27h-.952v-3.962c0-.69-.131-1.185-.392-1.484a1.277 1.277 0 00-1.023-.462c-.569 0-.998.238-1.288.714-.28.476-.42 1.115-.42 1.918V27h-.952v-6.552h.953v1.022c.214-.401.485-.71.812-.924a2.086 2.086 0 011.147-.322c.477 0 .892.13 1.246.392.355.252.603.616.742 1.092.206-.467.486-.83.84-1.092a2.022 2.022 0 011.233-.392zm6.63 0c.588 0 1.12.145 1.596.434.476.29.85.686 1.12 1.19.27.495.406 1.05.406 1.666 0 .177-.005.313-.014.406h-5.39c.037.672.257 1.246.658 1.722s.947.714 1.638.714c.56 0 1.022-.103 1.386-.308a2.46 2.46 0 00.896-.882l.756.504a3.343 3.343 0 01-1.218 1.148c-.504.27-1.101.406-1.792.406-.635 0-1.2-.15-1.694-.448a3.12 3.12 0 01-1.162-1.246c-.28-.532-.42-1.134-.42-1.806 0-.672.135-1.274.406-1.806.28-.532.663-.947 1.148-1.246a3.186 3.186 0 011.68-.448zm2.17 2.912c-.093-.681-.322-1.19-.686-1.526-.364-.345-.859-.518-1.484-.518-.607 0-1.106.196-1.498.588-.383.383-.625.868-.728 1.456h4.396zm64.877-2.688V27h-.952v-1.092c-.224.42-.523.747-.896.98-.364.224-.789.336-1.274.336-.457 0-.882-.093-1.274-.28a2.249 2.249 0 01-.924-.826c-.224-.364-.336-.793-.336-1.288v-4.382h.952v3.962c0 1.297.579 1.946 1.736 1.946.672 0 1.176-.238 1.512-.714.336-.476.504-1.115.504-1.918v-3.276h.952zm7.856 0V27h-.952v-.966a2.996 2.996 0 01-.994.882 2.736 2.736 0 01-1.288.308c-.626 0-1.186-.15-1.68-.448a3.118 3.118 0 01-1.162-1.246c-.28-.532-.42-1.139-.42-1.82 0-.672.135-1.27.406-1.792a3.15 3.15 0 011.148-1.246 3.182 3.182 0 011.68-.448c.476 0 .91.107 1.302.322.401.205.737.5 1.008.882v-.98h.952zm-3.262 5.908a2.14 2.14 0 001.19-.336c.354-.224.63-.537.826-.938.196-.401.294-.854.294-1.358 0-.504-.098-.957-.294-1.358a2.252 2.252 0 00-.826-.938 2.14 2.14 0 00-1.19-.336c-.439 0-.831.112-1.176.336a2.278 2.278 0 00-.812.938c-.196.392-.294.84-.294 1.344 0 .513.098.97.294 1.372.196.401.466.714.812.938.345.224.737.336 1.176.336zm8.239-6.132c.224 0 .439.033.644.098v.868a1.477 1.477 0 00-.644-.14c-.401 0-.774.112-1.12.336-.345.224-.625.55-.84.98-.205.42-.308.92-.308 1.498V27h-.952v-6.552h.952v1.316c.252-.485.57-.863.952-1.134.392-.27.831-.406 1.316-.406zm7.478-3.388V27h-.952v-.966a2.996 2.996 0 01-.994.882 2.736 2.736 0 01-1.288.308c-.626 0-1.186-.15-1.68-.448a3.118 3.118 0 01-1.162-1.246c-.28-.532-.42-1.139-.42-1.82 0-.672.135-1.27.406-1.792a3.15 3.15 0 011.148-1.246 3.182 3.182 0 011.68-.448c.476 0 .91.107 1.302.322.401.205.737.5 1.008.882v-4.592h.952zm-3.262 9.52a2.14 2.14 0 001.19-.336c.354-.224.63-.537.826-.938.196-.401.294-.854.294-1.358 0-.504-.098-.957-.294-1.358a2.252 2.252 0 00-.826-.938 2.14 2.14 0 00-1.19-.336c-.439 0-.831.112-1.176.336a2.278 2.278 0 00-.812.938c-.196.392-.294.84-.294 1.344 0 .513.098.97.294 1.372.196.401.466.714.812.938.345.224.737.336 1.176.336z" fill="#000"/><path fill="#EE3B29" d="M0 21.666h1.444v15.889H0zm20.223-1.443h2.889v17.333h-2.889z"/><path fill-rule="evenodd" clip-rule="evenodd" d="M105.237 4.332H76.559v23.28h.027c.463 6.354 6.694 11.387 14.312 11.387 7.618 0 13.849-5.033 14.312-11.387h.027V19.19h-.144v-.24H89.348v3.374h13.409v4.204h-.022c-.379 5.199-5.471 9.316-11.698 9.316-6.226 0-11.319-4.117-11.697-9.316h-.022V7.48h23.439v6.758h2.48V4.332z" fill="#267BDB"/></svg>