<svg version="1.1" id="Layer_1" xmlns="http://www.w3.org/2000/svg" x="0" y="0" viewBox="0 0 66.4 60.1" xml:space="preserve"><style>.st0{fill:none}</style><path class="st0" d="M50.9 45.4c.4.4.9.6 1.5.6.2 0 .3 0 .5-.1.7-.2 1.3-.8 1.5-1.5.3-1.1-.3-2.2-1.4-2.5-.2-.1-.4-.1-.6-.1-.6 0-1.1.2-1.5.6-.1.1-.3.2-.4.2h-7.2c-.2 0-.3-.1-.4-.2-.8-.8-2.1-.8-2.9 0-.8.8-.8 2.1 0 2.9.2.2.5.4.9.5.2.1.4.1.6.1.6 0 1.1-.2 1.5-.7.1-.1.3-.2.5-.2h7.2c-.1.2.1.3.2.4zm-37.6 0c.4.4.9.6 1.5.6.2 0 .3 0 .5-.1 1-.4 1.5-1.6 1.1-2.6-.4-1-1.6-1.5-2.6-1.1-.2.1-.4.2-.5.3-.1.1-.3.2-.4.2H5.6c-.2 0-.3-.1-.4-.2-.7-.9-2-1-2.8-.3-.7.6-.9 1.5-.6 2.3.2.7.7 1.3 1.4 1.5.2 0 .4.1.6.1.6 0 1.1-.2 1.5-.7.1-.1.3-.2.4-.2h7.2c.1 0 .3.1.4.2zm-6.7 6.7h5.2v6.2H6.6z"/><path class="st0" d="M64.6 20.7c-.2-4.9-2.3-9.6-5.8-13.1-1.8-1.8-3.9-3.2-6.3-4.2s-5.1-1.6-7.7-1.6C33.9 1.8 25 10.7 25 21.6v36.8h5.7V21.5C30.5 13.7 36.5 7.3 44.3 7c7.8-.2 14.2 5.8 14.5 13.6h5.8z"/><path class="st0" d="M59 22.4h5.7V27H59zM44.2 52.1h5.2v6.2h-5.2zM63 36.5l-.9-1.7-1.5 3c-.1.2-.2.5-.2.8 0 .9.8 1.7 1.7 1.7h.3c.6-.1 1.1-.6 1.3-1.1.1-.2.1-.4.1-.5 0-.2-.1-.5-.1-.7l-.7-1.5zm-2.1-3.4z"/><path d="M53.3 1.7C50.6.6 47.8 0 44.9 0 33 0 23.4 9.6 23.4 21.5v36.8h-9.7v-8h-3.5V47h2.3c.7.5 1.5.8 2.3.8 2.1 0 3.8-1.7 3.8-3.8s-1.7-3.8-3.8-3.8c-.8 0-1.7.3-2.3.8H6.1c-1.7-1.2-4.1-.9-5.3.8s-.9 4.1.8 5.3c.4.3.8.5 1.2.6.3.1.7.1 1 .1.9 0 1.7-.3 2.4-.9h2.3v3.4H4.9v8H2.4v1.8h51.3v-1.8h-2.5v-8h-3.5V47H50c.7.5 1.5.8 2.3.8.3 0 .6 0 .9-.1 1.4-.3 2.5-1.4 2.8-2.8.3-1.1 0-2.3-.7-3.2-.7-.9-1.8-1.4-3-1.4-.8 0-1.7.3-2.3.8h-6.4c-1.7-1.3-4-1-5.3.7-.7.9-1 2.2-.7 3.3.3 1.3 1.3 2.4 2.6 2.7 1.2.3 2.5.1 3.4-.7h2.2v3.4h-3.5v8h-9.9V21.6c0-6.8 5.5-12.3 12.3-12.3 1.6 0 3.3.3 4.8 1 2.9 1.3 5.3 3.6 6.6 6.6.7 1.5 1 3.1 1 4.8V29h9.2v-7.3c.1-8.8-5.1-16.6-13-20zM5.7 45.2c-.2 0-.3.1-.4.2-.4.4-.9.7-1.5.7-.2 0-.4 0-.6-.1-.7-.2-1.2-.8-1.4-1.5-.4-1 .1-2.2 1.1-2.6.8-.3 1.7-.1 2.3.6.1.1.3.2.4.2h7.3c.2 0 .3-.1.4-.2.9-.7 2.1-.6 2.8.3.7.9.6 2.1-.3 2.8-.2.1-.3.2-.5.3-.1.1-.3.1-.5.1-.6 0-1.1-.2-1.5-.6-.1-.1-.3-.2-.4-.2H5.7zm6.2 6.9v6.2H6.6v-6.2h5.3zm31.4-6.9c-.2 0-.3.1-.5.2-.4.4-.9.7-1.5.7-.2 0-.4 0-.6-.1-1.1-.3-1.7-1.5-1.4-2.5.3-1.1 1.5-1.7 2.5-1.4.3.1.6.3.9.5.1.1.3.2.4.2h7.3c.2 0 .3-.1.4-.2.4-.4.9-.6 1.5-.6 1.1 0 2 .8 2.1 1.9 0 .2 0 .4-.1.6-.2.7-.8 1.3-1.5 1.5-.2 0-.3.1-.5.1-.6 0-1.1-.2-1.5-.6-.1-.1-.3-.2-.4-.2h-7.1zm6.1 6.9v6.2h-5.2v-6.2h5.2zm5.4-40.5c-5.5-5.5-14.4-5.5-19.9 0-2.6 2.6-4.1 6.2-4.1 9.9v36.8h-5.7V21.5c0-10.9 8.9-19.8 19.8-19.8 2.6 0 5.3.5 7.7 1.6 2.3 1 4.5 2.4 6.3 4.2 3.5 3.5 5.6 8.2 5.8 13.1H59c-.3-3.4-1.7-6.6-4.2-9zM59 27.1v-4.6h5.7v4.6H59z" fill="#212945"/><path d="M60.9 33.1zm4.3 3.9l-.7-1.4-1.3-2.5c-.2-.4-.7-.7-1.2-.7s-.9.3-1.2.7L59 36.9c-.3.5-.4 1-.4 1.6 0 1.9 1.5 3.5 3.5 3.5.2 0 .4 0 .6-.1 1.2-.2 2.3-1.1 2.6-2.3.1-.3.2-.7.2-1.1.1-.5 0-1-.3-1.5zm-1.5 2c-.2.6-.7 1-1.3 1.1h-.3c-.9 0-1.7-.7-1.7-1.7 0-.3.1-.5.2-.8l1.5-3 .9 1.7.7 1.3c.1.2.2.5.1.7 0 .3 0 .5-.1.7z" fill="#43bee5"/></svg>