<svg version="1.1" id="Layer_1" xmlns="http://www.w3.org/2000/svg" x="0" y="0" viewBox="0 0 74.8 53.2" xml:space="preserve"><path d="M48.4 26.3H22.6V38h25.8zm-12.3-1.7V8.9c.1-3.7-2.8-6.9-6.5-7-3.7-.1-6.9 2.8-7 6.5v16.1h13.5zm14 0h13.5V8.9c0-3.7-3-6.8-6.8-6.8S50 5.1 50 8.9l.1 15.7zM22.6 39.8v11.7c2.1 0 4.1-.6 5.9-1.6 4.3-2.5 9.7-2.5 14 0 1.8 1.1 3.9 1.7 6 1.6V39.8H22.6z" fill="none"/><path d="M22.6 51.4V39.8h25.8v11.7h.2c.6 0 1.1 0 1.6-.1V26.3h23v-1.8h-7.8V8.9c0-4.7-3.8-8.5-8.5-8.5s-8.5 3.8-8.5 8.5v15.6H37.9V8.9c.2-4.7-3.4-8.7-8.1-8.9-4.7-.2-8.7 3.4-8.9 8.1v16.4H1.5v1.8h19.4v25c.4 0 .9.1 1.5.1h.2zM52.2 4.1c2.7-2.6 6.9-2.6 9.5.1 1.2 1.3 1.9 2.9 1.9 4.7v15.6H50.1V8.9c0-1.8.7-3.5 2.1-4.8zM22.6 8.9c-.1-3.7 2.8-6.9 6.5-7 3.7-.1 6.9 2.8 7 6.5v16.1H22.6V8.9zm0 17.4h25.8V38H22.6V26.3z" fill="#212945"/><path d="M.7 52.4zm61-4.5c-2.5-.1-4.9.6-7 1.9-1.4.8-3 1.4-4.6 1.6-.5.1-1 .1-1.6.1h-.2c-2.1 0-4.2-.5-6-1.6-4.3-2.5-9.7-2.5-14 0-1.8 1.1-3.8 1.6-5.9 1.6h-.3c-.6 0-1 0-1.5-.1-1.7-.2-3.2-.7-4.7-1.6-3.6-2-7.9-2.4-11.7-1.1-1.1.4-2.1 1-3.1 1.5-.4.2-.8.4-1.2.5l.6 1.6c.6-.1 1-.3 1.5-.5l3-1.5c3.4-1.2 7.2-.8 10.3 1 4.3 2.5 9.6 2.5 13.9 0 3.8-2.2 8.5-2.2 12.3 0 4.3 2.5 9.7 2.5 14 0 3.8-2.2 8.5-2.2 12.3 0 2.1 1.3 4.5 1.9 7 1.9v-1.8c-2.2.1-4.3-.5-6.2-1.6-2-1.3-4.4-1.9-6.9-1.9z" fill="#43bee5"/></svg>