<svg id="Layer_1" data-name="Layer 1" xmlns="http://www.w3.org/2000/svg" viewBox="0 0 87.647 53.462"><path id="fullLogo" d="M56.26 28.029a11.265 11.265 0 01-6.16-1.65 12.803 12.803 0 00-6.97-1.86 12.815 12.815 0 00-6.98 1.86 11.254 11.254 0 01-6.15 1.65 11.2 11.2 0 01-6.15-1.65 15.192 15.192 0 00-2.92-1.3v1.85a16.097 16.097 0 012.09.99 12.929 12.929 0 006.98 1.86 12.89 12.89 0 006.97-1.86 11.265 11.265 0 016.16-1.65 11.254 11.254 0 016.15 1.65 12.929 12.929 0 006.98 1.86 12.862 12.862 0 006.97-1.86 12.543 12.543 0 013.25-1.34v-1.79a13.496 13.496 0 00-4.07 1.59 11.254 11.254 0 01-6.15 1.65z" fill="#41b6e6"/><path id="fullLogo-2" data-name="fullLogo" d="M75.494 18.635c-1.151-3.775-2.922-6.411-5.274-6.411h-3.577V6.75h1.889a.875.875 0 000-1.75H54.084a.875.875 0 000 1.75h1.888v5.474H31.481V6.75h1.889a.875.875 0 000-1.75H18.922a.875.875 0 000 1.75h1.89v5.474h-2.05a6.164 6.164 0 00-5.74 3.97l-.063.167a39.98 39.98 0 00-.77 2.274H5v1.75h6.69a39.67 39.67 0 001.324 24.128 6.167 6.167 0 005.732 3.949H70.22c4.436 0 6.829-9.337 6.829-18.122a44.552 44.552 0 00-1.082-9.955h6.68v-1.75zM57.722 6.75h7.171v5.474h-7.17zm-35.16 0h7.17v5.474h-7.17zM70.22 46.712H18.746a4.408 4.408 0 01-4.097-2.822 37.937 37.937 0 01-.053-26.912l.062-.166a4.405 4.405 0 014.103-2.838H70.22c2.397 0 5.079 6.999 5.079 16.366 0 9.37-2.682 16.372-5.079 16.372z" fill="#202945"/></svg>