<svg id="Layer_1" data-name="Layer 1" xmlns="http://www.w3.org/2000/svg" viewBox="0 0 61.004 76.118"><path id="fullLogo" d="M9.603 60.709a3.458 3.458 0 01-3.466-3.459 3.418 3.418 0 01.387-1.565l1.91-3.757a1.302 1.302 0 011.163-.714 1.302 1.302 0 011.163.712l1.97 3.87a3.455 3.455 0 01-2.493 4.856 3.58 3.58 0 01-.634.057zm-.005-7.21l-1.515 2.98a1.685 1.685 0 00-.196.771 1.709 1.709 0 003.331.54 1.677 1.677 0 00-.066-1.238z" fill="#41b6e6"/><path id="fullLogo-2" data-name="fullLogo" d="M55.54 65.774l-5.45-4.087a4.396 4.396 0 01-1.748-3.494v-22.41a12.876 12.876 0 00-3.926-9.478l-21.06-21.05a.875.875 0 10-1.236 1.24l5.468 5.464c-.002.021-.013.039-.013.06v11.718h-3.439a2.43 2.43 0 00-2.42 2.43v6.52H12.37a7.34 7.34 0 00-4.77 1.75 6.825 6.825 0 00-.85.85A7.34 7.34 0 005 40.057v9.2h9.23v-6.34a1.338 1.338 0 01.07-.66 1.014 1.014 0 01.13-.16.576.576 0 01.41-.18h6.877v15.75a2.429 2.429 0 002.42 2.42h.705l-1.72 9.281h-4.438v1.75h22.96v-1.75h-4.388l-1.72-9.28h.7a2.428 2.428 0 002.425-2.426V26.163a2.428 2.428 0 00-2.425-2.425h-1.21v-.001h-2.224V17.17L43.19 27.553a11.171 11.171 0 013.402 8.23v22.41a6.156 6.156 0 002.446 4.894l5.45 4.088a.875.875 0 001.052-1.4zM21.716 40.167c-2.061.002-5.35.007-6.167-.01h-.71a1.668 1.668 0 00-.32.02c-.11.01-.23.06-.33.06a2.636 2.636 0 00-1.13.76 3.308 3.308 0 00-.58 2.33v4.18H6.75v-7.45a5.625 5.625 0 015.62-5.62h9.347zm7.609-26.471l1.726 1.726v8.315h-1.726zm-4.424 55.672l1.72-9.28h7.134l1.72 9.28zm11.334-43.88a.676.676 0 01.675.675v31.5a.675.675 0 01-.675.674H24.136a.67.67 0 01-.67-.67v-31.5a.672.672 0 01.67-.68h1.215v.002z" fill="#202945"/></svg>